<svg width="37" height="38" viewBox="0 0 37 38" fill="none" xmlns="http://www.w3.org/2000/svg">
<path d="M5.04144 17.7992C5.01547 17.8549 4.98887 17.9075 4.9629 17.9644C4.45163 19.0988 3.61484 20.06 2.55624 20.7288L0.806337 21.8287C0.361579 22.1091 0.0694333 22.5737 0.0119473 23.092C-0.0455386 23.6103 0.137836 24.1264 0.51057 24.4954L8.14034 32.0373C8.46624 32.3587 8.90801 32.5388 9.36837 32.5381C9.43365 32.5399 9.49898 32.5382 9.56407 32.5331C10.0891 32.4773 10.5595 32.1875 10.8415 31.7462C11.6504 30.5192 12.8538 29.5972 14.2577 29.1289C14.7877 28.9425 15.2951 28.6985 15.7707 28.4015L17.3142 29.9265C17.9748 30.582 19.0215 30.6606 19.7747 30.1111L27.103 37.3576C27.3515 37.5948 27.7465 37.5914 27.9908 37.3499C28.2351 37.1085 28.2385 36.718 27.9985 36.4724L20.6879 29.2466L23.2757 26.6888L29.1613 32.5062C29.4098 32.7434 29.8048 32.74 30.0491 32.4985C30.2934 32.2571 30.2969 31.8666 30.0568 31.621L24.1713 25.8037L26.4424 23.5589L28.8446 25.9333C29.0931 26.1705 29.4882 26.1671 29.7325 25.9256C29.9768 25.6842 29.9802 25.2937 29.7402 25.0481L27.3379 22.6737L29.6091 20.429L34.5446 25.3073C34.7931 25.5445 35.1882 25.5411 35.4325 25.2997C35.6768 25.0582 35.6802 24.6678 35.4402 24.4221L30.4843 19.5238C31.0403 18.7793 30.9608 17.7448 30.2975 17.0918L26.5494 13.3872C26.5862 13.2329 26.6055 13.075 26.6071 12.9165C26.6091 12.3555 26.3837 11.8172 25.9813 11.4216C25.7663 11.2121 25.5066 11.0525 25.2213 10.9546L25.9813 10.2034C26.8156 9.37743 26.8156 8.03971 25.9813 7.21371C25.1355 6.4137 23.8024 6.4137 22.9565 7.21371L22.5594 7.6062C22.3463 7.03973 21.8956 6.59206 21.3236 6.37847C20.7516 6.16489 20.114 6.20626 19.5752 6.49194L13.549 0.536914C12.7982 -0.178971 11.6088 -0.178971 10.858 0.536914L0.562503 10.7099C0.202594 11.061 0 11.5399 0 12.0398C0 12.5396 0.202594 13.0186 0.562503 13.3697L5.04144 17.7992ZM29.5869 18.4202C29.5872 18.5863 29.5207 18.7457 29.402 18.8634L19.104 29.0419C18.8527 29.2779 18.4585 29.2779 18.2072 29.0419L16.8069 27.6579C16.9848 27.5083 17.0963 27.4025 17.1096 27.3893L22.4296 22.1279C22.8494 21.7124 23.0756 21.1431 23.054 20.5562C23.0324 19.9694 22.7649 19.4179 22.3156 19.0336C22.1259 18.8732 21.908 18.7486 21.6728 18.6662L25.8844 14.504L29.3988 17.9776C29.5189 18.0943 29.5867 18.2537 29.5869 18.4202ZM21.1826 7.74705C21.5217 8.08443 21.5217 8.62909 21.1826 8.96648L16.2141 13.8786C16.0494 14.0358 15.9834 14.2685 16.0414 14.4874C16.0993 14.7063 16.2723 14.8772 16.4937 14.9345C16.7151 14.9917 16.9506 14.9265 17.1096 14.7638L22.0775 9.8535L23.8508 8.10073C24.1957 7.77418 24.7397 7.77418 25.0845 8.10073C25.424 8.43798 25.424 8.98292 25.0845 9.32016L18.3433 15.9813C18.1787 16.1385 18.1127 16.3712 18.1706 16.5901C18.2286 16.8089 18.4015 16.9799 18.6229 17.0372C18.8444 17.0944 19.0799 17.0292 19.2389 16.8665L23.8521 12.3068C24.1968 11.9799 24.741 11.9799 25.0858 12.3068C25.4253 12.644 25.4253 13.1889 25.0858 13.5262L19.7658 18.7876C19.7232 18.8338 19.688 18.8862 19.6613 18.9429C19.5506 19.0187 19.4468 19.104 19.351 19.1976L16.5687 21.9438C16.3211 22.1883 16.3208 22.5848 16.5681 22.8296C16.8154 23.0744 17.2166 23.0747 17.4643 22.8302L20.2433 20.0834C20.5713 19.7397 21.1085 19.6952 21.4897 19.9801C21.673 20.137 21.7822 20.362 21.7912 20.6015C21.8002 20.841 21.7083 21.0735 21.5372 21.2434L16.2172 26.5017C15.5302 27.1324 14.7231 27.6218 13.8429 27.9414C12.1683 28.5025 10.7341 29.6052 9.7718 31.0714C9.6946 31.191 9.56672 31.2695 9.42406 31.285C9.2814 31.3004 9.13934 31.2511 9.03777 31.1509L1.4061 23.6102C1.30447 23.5098 1.25443 23.3693 1.27007 23.2281C1.28571 23.0869 1.36533 22.9604 1.48654 22.8841L3.23454 21.7848C4.50255 20.9851 5.50535 19.8353 6.11874 18.4777C6.62366 17.2437 7.34059 16.1051 8.23787 15.1124L15.2755 8.15707C15.6029 7.81289 16.1403 7.76834 16.5212 8.05379C16.7045 8.21067 16.8137 8.43571 16.8227 8.67521C16.8317 8.9147 16.7397 9.14713 16.5687 9.31703L14.0848 11.7722C13.9202 11.9293 13.8541 12.1621 13.9121 12.3809C13.9701 12.5998 14.143 12.7707 14.3644 12.828C14.5858 12.8853 14.8213 12.82 14.9803 12.6573L17.4643 10.2022L19.9507 7.74705C20.2954 7.42169 20.8379 7.42169 21.1826 7.74705ZM1.4574 11.5981L11.7567 1.41643C12.0056 1.17654 12.4031 1.17793 12.6503 1.41956L18.6036 7.30385L17.9399 7.95926C17.8178 7.63071 17.6147 7.33745 17.349 7.10604C16.4672 6.38613 15.1735 6.45784 14.3787 7.27067L7.34234 14.2273C6.66306 14.9405 6.08909 15.7449 5.6374 16.6167L1.45297 12.4852C1.332 12.3683 1.26418 12.2079 1.26501 12.0407C1.26585 11.8735 1.33527 11.7138 1.4574 11.5981Z" fill="white"/>
<path d="M34.7032 31.4109L35.6532 32.3501C35.9017 32.5874 36.2967 32.584 36.541 32.3425C36.7853 32.101 36.7887 31.7104 36.5487 31.4648L35.5987 30.5256C35.3502 30.2883 34.9552 30.2917 34.7109 30.5332C34.4666 30.7747 34.4632 31.1653 34.7032 31.4109Z" fill="white"/>
<path d="M32.8026 29.5331C33.0511 29.7704 33.4461 29.767 33.6904 29.5255C33.9347 29.2839 33.9381 28.8934 33.6981 28.6478L32.7481 27.7086C32.4996 27.4713 32.1046 27.4747 31.8603 27.7162C31.616 27.9577 31.6126 28.3482 31.8526 28.5939L32.8026 29.5331Z" fill="white"/>
<path d="M31.8534 32.3501C32.1007 32.5945 32.5016 32.5945 32.7489 32.3501L33.6989 31.4109C33.939 31.1653 33.9355 30.7747 33.6912 30.5332C33.4469 30.2917 33.0519 30.2883 32.8034 30.5256L31.8534 31.4648C31.6062 31.7093 31.6062 32.1056 31.8534 32.3501Z" fill="white"/>
<path d="M34.703 29.5331C34.9503 29.7775 35.3512 29.7775 35.5985 29.5331L36.5485 28.5939C36.7886 28.3482 36.7851 27.9577 36.5408 27.7162C36.2965 27.4747 35.9015 27.4713 35.653 27.7086L34.703 28.6478C34.4558 28.8923 34.4558 29.2886 34.703 29.5331Z" fill="white"/>
<path d="M32.3003 10.7861C32.6501 10.7861 32.9337 10.5057 32.9337 10.1599V8.90773C32.9337 8.56193 32.6501 8.28162 32.3003 8.28162C31.9505 8.28162 31.667 8.56193 31.667 8.90773V10.1599C31.667 10.5057 31.9505 10.7861 32.3003 10.7861Z" fill="white"/>
<path d="M32.9337 13.9159V12.6637C32.9337 12.3179 32.6501 12.0376 32.3003 12.0376C31.9505 12.0376 31.667 12.3179 31.667 12.6637V13.9159C31.667 14.2617 31.9505 14.542 32.3003 14.542C32.6501 14.542 32.9337 14.2617 32.9337 13.9159Z" fill="white"/>
<path d="M33.5669 12.0376H34.8336C35.1834 12.0376 35.4669 11.7574 35.4669 11.4116C35.4669 11.0659 35.1834 10.7856 34.8336 10.7856H33.5669C33.2171 10.7856 32.9336 11.0659 32.9336 11.4116C32.9336 11.7574 33.2171 12.0376 33.5669 12.0376Z" fill="white"/>
<path d="M29.7671 12.0376H31.0338C31.3836 12.0376 31.6671 11.7574 31.6671 11.4116C31.6671 11.0659 31.3836 10.7856 31.0338 10.7856H29.7671C29.4173 10.7856 29.1338 11.0659 29.1338 11.4116C29.1338 11.7574 29.4173 12.0376 29.7671 12.0376Z" fill="white"/>
</svg>
