<svg width="152" height="39" viewBox="0 0 152 39" fill="none" xmlns="http://www.w3.org/2000/svg">
<path d="M11.9375 11.2656C14.3958 11.2656 16.2552 11.8645 17.5156 13.0625C18.776 14.25 19.4062 16.0156 19.4062 18.3593V30H14.5156L14.4844 17.9531C14.4844 16.9843 14.276 16.2656 13.8594 15.7968C13.4427 15.3177 12.8073 15.0781 11.9531 15.0781H9.53125C9.375 15.651 9.25 16.2812 9.15625 16.9687C9.07292 17.6562 9.03125 18.3072 9.03125 18.9218V24.2812C9.03125 25.5416 8.80729 26.6197 8.35938 27.5156C7.91146 28.4114 7.26042 29.0989 6.40625 29.5781C5.55208 30.0468 4.53125 30.2812 3.34375 30.2812C2.61458 30.2812 1.82292 30.2083 0.96875 30.0625V26.2812C1.42708 26.302 1.77083 26.3125 2 26.3125C3.51042 26.3125 4.26562 25.5104 4.26562 23.9062V19.3593C4.26562 18.6718 4.35417 17.927 4.53125 17.125C4.71875 16.3125 4.98438 15.6302 5.32812 15.0781H2.40625V11.2656H11.9375Z" fill="#313131"/>
<path d="M24.3281 15.0781H22.6875V11.2656H29.2344V30H24.3281V15.0781Z" fill="#313131"/>
<path d="M40.7031 17.625C40.7031 16.7916 40.4688 16.1614 40 15.7343C39.5312 15.2968 38.8542 15.0781 37.9688 15.0781H32.3281V11.2656H38.3281C39.8385 11.2656 41.1406 11.5312 42.2344 12.0625C43.3281 12.5833 44.1615 13.3385 44.7344 14.3281C45.3177 15.3177 45.6094 16.5 45.6094 17.875V30H40.7031V17.625Z" fill="#313131"/>
<path d="M64.75 11.2656V15.0781H61.4531V30H56.5625V15.0781H48.625V11.2656H64.75Z" fill="#313131"/>
<path d="M67.1875 30.2031C66.8125 30.2031 66.4167 30.177 66 30.125V25.7031C66.5521 25.7864 67.0417 25.8281 67.4688 25.8281C69.7917 25.7968 71.3438 24.7552 72.125 22.7031V15.0781H68.0312V11.2656H76.9531V20.75C76.9531 21.7708 77.0573 22.776 77.2656 23.7656L78.5156 30H74L72.8906 25.2656H72.7969C72.6406 26.1927 72.2969 27.0312 71.7656 27.7812C71.2448 28.5312 70.5833 29.125 69.7812 29.5625C68.9896 29.9895 68.125 30.2031 67.1875 30.2031Z" fill="#313131"/>
<path d="M93.0156 17.8906C93.0156 16.9427 92.7708 16.2395 92.2812 15.7812C91.7917 15.3125 91.0417 15.0781 90.0312 15.0781H82.2969V11.2656H90.3906C91.974 11.2656 93.3281 11.5364 94.4531 12.0781C95.5885 12.6093 96.4479 13.3906 97.0312 14.4218C97.625 15.4427 97.9219 16.677 97.9219 18.125V30H93.0156V17.8906ZM82.2344 23.5781C82.2344 21.776 82.6094 20.4322 83.3594 19.5468H87.2656C87.0677 20.4843 86.9688 21.651 86.9688 23.0468V30H82.2344V23.5781Z" fill="#313131"/>
<path d="M147.482 21.3408C147.561 20.7533 147.6 20.1462 147.6 19.5C147.6 18.8733 147.561 18.2466 147.463 17.6591L151.438 14.565C151.61 14.4238 151.727 14.2275 151.77 14.0097C151.812 13.7919 151.778 13.5659 151.673 13.3704L147.913 6.86871C147.802 6.67258 147.625 6.52191 147.414 6.44313C147.203 6.36435 146.97 6.36249 146.758 6.43787L142.077 8.31787C141.098 7.57371 140.06 6.94704 138.905 6.47704L138.2 1.50287C138.165 1.2787 138.051 1.0744 137.879 0.927077C137.706 0.779749 137.487 0.699165 137.26 0.699957H129.74C129.27 0.699957 128.898 1.03287 128.82 1.50287L128.115 6.47704C126.959 6.94704 125.902 7.59329 124.942 8.31787L120.262 6.43787C119.831 6.28121 119.341 6.43787 119.106 6.86871L115.366 13.3704C115.131 13.7816 115.209 14.2908 115.601 14.565L119.576 17.6591C119.478 18.2466 119.4 18.8929 119.4 19.5C119.4 20.107 119.439 20.7533 119.537 21.3408L115.562 24.435C115.39 24.5762 115.273 24.7724 115.23 24.9902C115.188 25.208 115.222 25.434 115.327 25.6295L119.087 32.1312C119.322 32.562 119.811 32.6991 120.242 32.562L124.923 30.682C125.902 31.4262 126.94 32.0529 128.095 32.5229L128.8 37.497C128.898 37.967 129.27 38.3 129.74 38.3H137.26C137.73 38.3 138.122 37.967 138.18 37.497L138.885 32.5229C140.041 32.0529 141.098 31.4262 142.058 30.682L146.738 32.562C147.169 32.7187 147.659 32.562 147.894 32.1312L151.654 25.6295C151.889 25.1987 151.791 24.7091 151.419 24.435L147.482 21.3408ZM133.5 26.55C129.622 26.55 126.45 23.3775 126.45 19.5C126.45 15.6225 129.622 12.45 133.5 12.45C137.378 12.45 140.55 15.6225 140.55 19.5C140.55 23.3775 137.378 26.55 133.5 26.55Z" fill="#313131"/>
</svg>
