<svg width="19" height="21" viewBox="0 0 19 21" fill="none" xmlns="http://www.w3.org/2000/svg">
<path d="M15.75 7.375L14.875 16.1229C14.7427 17.449 14.6771 18.1115 14.375 18.6125C14.1101 19.0535 13.7204 19.4062 13.2552 19.626C12.7271 19.875 12.0625 19.875 10.7292 19.875H8.27083C6.93854 19.875 6.27292 19.875 5.74479 19.625C5.27922 19.4054 4.88918 19.0527 4.62396 18.6115C4.32396 18.1115 4.25729 17.449 4.12396 16.1229L3.25 7.375M11.0625 14.1458V8.9375M7.9375 14.1458V8.9375M1.6875 4.77083H6.49479M6.49479 4.77083L6.89688 1.9875C7.01354 1.48125 7.43437 1.125 7.91771 1.125H11.0823C11.5656 1.125 11.9854 1.48125 12.1031 1.9875L12.5052 4.77083M6.49479 4.77083H12.5052M12.5052 4.77083H17.3125" stroke="#444343" stroke-width="1.5" stroke-linecap="round" stroke-linejoin="round"/>
</svg>
