<svg width="145" height="39" viewBox="0 0 145 39" fill="none" xmlns="http://www.w3.org/2000/svg">
<path d="M10.3125 11.594C12.75 11.594 14.5677 12.1773 15.7656 13.344C16.974 14.5002 17.5781 16.2658 17.5781 18.6408V30.0002H14.6875L14.6719 18.469C14.6719 16.8752 14.3281 15.719 13.6406 15.0002C12.9635 14.2815 11.8646 13.9221 10.3438 13.9221H7.73438C7.39062 14.4846 7.11458 15.2085 6.90625 16.094C6.70833 16.969 6.60938 17.87 6.60938 18.7971V25.0002C6.60938 26.6877 6.20833 27.969 5.40625 28.844C4.60417 29.719 3.4375 30.1565 1.90625 30.1565C1.45833 30.1565 0.859375 30.1096 0.109375 30.0158V27.6877C0.442708 27.7294 0.802083 27.7502 1.1875 27.7502C2.09375 27.7502 2.75 27.5158 3.15625 27.0471C3.57292 26.5783 3.78125 25.8387 3.78125 24.8283V19.0158C3.78125 18.0679 3.90625 17.1252 4.15625 16.1877C4.40625 15.2398 4.75 14.4846 5.1875 13.9221H1.73438V11.594H10.3125Z" fill="#313131"/>
<path d="M23.6719 13.9221H21.5312V11.594H26.5781V30.0002H23.6719V13.9221Z" fill="#313131"/>
<path d="M39.8281 17.1565C39.8281 16.1565 39.5312 15.37 38.9375 14.7971C38.3542 14.2137 37.5521 13.9221 36.5312 13.9221H30.3438V11.594H36.625C37.8854 11.594 38.974 11.8231 39.8906 12.2815C40.8073 12.7398 41.5052 13.4012 41.9844 14.2658C42.474 15.1304 42.7188 16.1669 42.7188 17.3752V30.0002H39.8281V17.1565Z" fill="#313131"/>
<path d="M60.7969 11.594V13.9221H57.7188V30.0002H54.8125V13.9221H46.0625V11.594H60.7969Z" fill="#313131"/>
<path d="M62.8594 30.1252C62.526 30.1252 62.2812 30.1096 62.125 30.0783V27.4065C62.4062 27.4481 62.7083 27.469 63.0312 27.469C64.5312 27.4273 65.75 26.9742 66.6875 26.1096C67.625 25.2346 68.224 24.1148 68.4844 22.7502V13.9221H64.3281V11.594H71.3438V21.094C71.3438 22.0627 71.4427 23.0002 71.6406 23.9065L72.9219 30.0002H70.1875L69.1094 24.844H69C68.875 25.771 68.526 26.6408 67.9531 27.4533C67.3802 28.2658 66.6458 28.9169 65.75 29.4065C64.8646 29.8856 63.901 30.1252 62.8594 30.1252Z" fill="#313131"/>
<path d="M87.7188 18.4533C87.7188 16.8596 87.3594 15.7085 86.6406 15.0002C85.9219 14.2815 84.7656 13.9221 83.1719 13.9221H76.5V11.594H83.3125C85.7188 11.594 87.5365 12.1773 88.7656 13.344C90.0052 14.5106 90.625 16.2398 90.625 18.5315V30.0002H87.7188V18.4533ZM76.5312 23.719C76.5312 22.771 76.599 22.0262 76.7344 21.4846C76.8802 20.9325 77.0833 20.3804 77.3438 19.8283H79.7188C79.5938 20.3075 79.5 20.8387 79.4375 21.4221C79.375 22.0054 79.3438 22.7085 79.3438 23.5315V30.0002H76.5312V23.719Z" fill="#313131"/>
<path d="M140.482 21.341C140.561 20.7535 140.6 20.1465 140.6 19.5002C140.6 18.8735 140.561 18.2469 140.463 17.6594L144.438 14.5652C144.61 14.424 144.727 14.2278 144.77 14.0099C144.812 13.7921 144.778 13.5662 144.673 13.3706L140.913 6.86895C140.802 6.67283 140.625 6.52216 140.414 6.44337C140.203 6.36459 139.97 6.36273 139.758 6.43812L135.077 8.31812C134.098 7.57395 133.06 6.94728 131.905 6.47728L131.2 1.50312C131.165 1.27895 131.051 1.07465 130.879 0.927321C130.706 0.779994 130.487 0.699409 130.26 0.700201H122.74C122.27 0.700201 121.898 1.03312 121.82 1.50312L121.115 6.47728C119.959 6.94728 118.902 7.59353 117.942 8.31812L113.262 6.43812C112.831 6.28145 112.341 6.43812 112.106 6.86895L108.366 13.3706C108.131 13.7819 108.209 14.291 108.601 14.5652L112.576 17.6594C112.478 18.2469 112.4 18.8931 112.4 19.5002C112.4 20.1073 112.439 20.7535 112.537 21.341L108.562 24.4352C108.39 24.5764 108.273 24.7726 108.23 24.9905C108.188 25.2083 108.222 25.4342 108.327 25.6298L112.087 32.1315C112.322 32.5623 112.811 32.6994 113.242 32.5623L117.923 30.6823C118.902 31.4265 119.94 32.0531 121.095 32.5231L121.8 37.4973C121.898 37.9673 122.27 38.3002 122.74 38.3002H130.26C130.73 38.3002 131.122 37.9673 131.18 37.4973L131.885 32.5231C133.041 32.0531 134.098 31.4265 135.058 30.6823L139.738 32.5623C140.169 32.719 140.659 32.5623 140.894 32.1315L144.654 25.6298C144.889 25.199 144.791 24.7094 144.419 24.4352L140.482 21.341ZM126.5 26.5502C122.622 26.5502 119.45 23.3777 119.45 19.5002C119.45 15.6227 122.622 12.4502 126.5 12.4502C130.378 12.4502 133.55 15.6227 133.55 19.5002C133.55 23.3777 130.378 26.5502 126.5 26.5502Z" fill="#313131"/>
</svg>
