<svg width="22" height="22" viewBox="0 0 22 22" fill="none" xmlns="http://www.w3.org/2000/svg">
<path fill-rule="evenodd" clip-rule="evenodd" d="M5.08201 1.80658C6.1623 0.732514 7.94117 0.923362 8.8457 2.13236L9.96592 3.62718C10.7027 4.6107 10.637 5.9848 9.76265 6.85382L9.55139 7.06509C9.52743 7.15377 9.525 7.24689 9.54429 7.33671C9.60021 7.69887 9.9029 8.46581 11.1705 9.72629C12.4381 10.9868 13.2103 11.2886 13.5778 11.3454C13.6704 11.364 13.766 11.3613 13.8574 11.3374L14.2196 10.977C14.9972 10.2047 16.1902 10.0601 17.1524 10.5829L18.8479 11.5061C20.301 12.2943 20.6676 14.2685 19.4781 15.4517L18.2167 16.7051C17.8191 17.1001 17.2847 17.4294 16.6331 17.4907C15.0265 17.6407 11.2832 17.4489 7.34821 13.537C3.67596 9.88518 2.97116 6.70026 2.8815 5.13087C2.83712 4.3373 3.21171 3.66623 3.68928 3.19222L5.08201 1.80658ZM7.7805 2.93036C7.33046 2.32942 6.49251 2.28148 6.02027 2.75105L4.62665 4.13581C4.33372 4.42696 4.19347 4.74829 4.21122 5.05542C4.28223 6.30259 4.85034 9.17594 8.28736 12.5934C11.893 16.1778 15.2227 16.2852 16.5098 16.1645C16.7725 16.1405 17.0335 16.0038 17.2776 15.7615L18.5381 14.5072C19.0511 13.9977 18.9384 13.0692 18.2123 12.6751L16.5169 11.7528C16.0482 11.499 15.4996 11.5824 15.1587 11.9215L14.7549 12.3236L14.2844 11.8514C14.7549 12.3236 14.754 12.3245 14.7531 12.3245L14.7522 12.3263L14.7495 12.3289L14.7433 12.3342L14.73 12.3467C14.6925 12.3814 14.6522 12.4129 14.6093 12.4408C14.5383 12.4878 14.4442 12.5402 14.3261 12.5837C14.0864 12.6733 13.7687 12.7213 13.3763 12.6609C12.6067 12.5428 11.5868 12.0182 10.2313 10.6708C8.87676 9.32329 8.34772 8.30959 8.22877 7.54087C8.16752 7.14853 8.21635 6.83074 8.30689 6.59107C8.35672 6.45621 8.42806 6.33031 8.51815 6.21826L8.54655 6.18719L8.55898 6.17387L8.56431 6.16855L8.56697 6.16589L8.56875 6.16411L8.82439 5.91024C9.20431 5.53121 9.25757 4.90363 8.89984 4.42518L7.7805 2.93036Z" fill="white"/>
</svg>
