<svg width="67" height="67" viewBox="0 0 67 67" fill="none" xmlns="http://www.w3.org/2000/svg">
<circle cx="33.5" cy="33.5" r="33.5" fill="url(#paint0_linear_104_1165)"/>
<g clip-path="url(#clip0_104_1165)">
<path d="M17.8999 22.5999C18.0723 22.5999 18.2376 22.5332 18.3594 22.4144L21.6094 19.2477C21.7784 19.0887 21.8462 18.8532 21.7867 18.6318C21.7272 18.4104 21.5497 18.2374 21.3225 18.1795C21.0952 18.1215 20.8535 18.1875 20.6903 18.3522L17.4403 21.5188C17.2545 21.7 17.1989 21.9723 17.2995 22.209C17.4001 22.4456 17.637 22.5999 17.8999 22.5999Z" fill="white"/>
<path d="M17.8999 26.3999C18.0723 26.3999 18.2376 26.3332 18.3594 26.2144L25.5094 19.2477C25.6784 19.0887 25.7462 18.8532 25.6867 18.6318C25.6272 18.4104 25.4497 18.2374 25.2225 18.1795C24.9952 18.1215 24.7535 18.1875 24.5903 18.3522L17.4403 25.3188C17.2545 25.5 17.1989 25.7723 17.2995 26.009C17.4001 26.2456 17.637 26.3999 17.8999 26.3999Z" fill="white"/>
<path d="M14 43.5C14 44.5493 14.873 45.4 15.95 45.4H33.5C33.859 45.4 34.15 45.1164 34.15 44.7667V16.2667H51.05C51.409 16.2667 51.7 16.5502 51.7 16.9V21.3333C51.7 21.6831 51.991 21.9667 52.35 21.9667C52.709 21.9667 53 21.6831 53 21.3333V16.9C53 15.8507 52.127 15 51.05 15H15.95C14.873 15 14 15.8507 14 16.9V43.5ZM15.95 16.2667H32.85V44.1333H15.95C15.591 44.1333 15.3 43.8498 15.3 43.5V16.9C15.3 16.5502 15.591 16.2667 15.95 16.2667Z" fill="white"/>
<path d="M41.3002 33.3667V35.1647L40.7724 36.7075C40.3166 38.0335 39.552 39.2388 38.5384 40.2288C36.5555 42.1505 35.4435 44.765 35.4502 47.49V49.2C35.4524 51.2978 37.1972 52.9979 39.3502 53H47.1502C49.3032 52.9979 51.0481 51.2978 51.0502 49.2V47.49C51.0456 43.1659 49.9282 38.9119 47.8002 35.1172V33.3667C47.7968 32.5644 47.2766 31.8506 46.5002 31.5832V28.5533L48.3475 26.6717L48.9111 27.2208C49.6809 27.9377 50.8933 27.9377 51.6632 27.2208L52.4302 26.4735C53.188 25.7321 53.188 24.5333 52.4302 23.7919L51.1302 22.5253C50.7655 22.1666 50.2684 21.9654 49.7502 21.9667H36.7502C36.0323 21.9667 35.4502 22.5338 35.4502 23.2333V25.1333C35.4502 25.8329 36.0323 26.4 36.7502 26.4H37.4002V28.6167L36.2302 29.4723C35.7404 29.8321 35.4518 30.3946 35.4502 30.9923C35.4502 31.712 35.8675 32.3699 36.5282 32.6917C37.1888 33.0136 37.9793 32.9441 38.5702 32.5123L40.5235 31.0867C41.0112 30.7255 41.2984 30.1636 41.3002 29.5667V26.8224L42.6002 28.5109V31.5832C41.8239 31.8506 41.3036 32.5644 41.3002 33.3667ZM49.7502 49.2C49.7502 50.5991 48.5862 51.7333 47.1502 51.7333H39.3502C37.9143 51.7333 36.7502 50.5991 36.7502 49.2V47.49C36.7436 45.0999 37.7187 42.8065 39.4581 41.1212C40.6141 39.9925 41.4858 38.6181 42.0048 37.1059L42.4182 35.9H46.7537C48.7159 39.4643 49.7451 43.4453 49.7502 47.49V49.2ZM46.5002 34.6333H42.6002V33.3667C42.6002 33.0169 42.8912 32.7333 43.2502 32.7333H45.8502C46.2092 32.7333 46.5002 33.0169 46.5002 33.3667V34.6333ZM43.9002 28.9333H45.2002V31.4667H43.9002V28.9333ZM36.7502 23.2333H38.7002V25.1333H36.7502V23.2333ZM39.7402 30.0733L37.7902 31.4983C37.5933 31.6423 37.3297 31.6654 37.1095 31.5582C36.8893 31.4509 36.7502 31.2316 36.7502 30.9917C36.7508 30.7925 36.847 30.605 37.0102 30.485L38.4402 29.44C38.6039 29.3204 38.7002 29.1327 38.7002 28.9333V26.4H40.0002V29.5667C39.9986 29.7657 39.9026 29.9527 39.7402 30.0733ZM41.3002 25.1333H40.0002V23.2333L49.7502 23.2333C49.9229 23.2328 50.0886 23.2996 50.2104 23.4189L51.5104 24.6856C51.7607 24.9323 51.7607 25.3293 51.5104 25.576L50.7434 26.3227C50.4878 26.561 50.0851 26.561 49.8295 26.3227L48.796 25.3157C48.6738 25.1983 48.5088 25.1327 48.3371 25.1333H48.33C48.1552 25.1354 47.9886 25.2059 47.8678 25.329L45.572 27.6667H43.5752L41.8202 25.3867C41.6975 25.2272 41.5048 25.1333 41.3002 25.1333Z" fill="white"/>
<path d="M43.2496 49.2C42.8906 49.2 42.5996 49.4836 42.5996 49.8334C42.5996 50.1831 42.8906 50.4667 43.2496 50.4667H47.1496C47.8676 50.4667 48.4496 49.8996 48.4496 49.2V47.49C48.4496 47.1402 48.1586 46.8567 47.7996 46.8567C47.4406 46.8567 47.1496 47.1402 47.1496 47.49V49.2H43.2496Z" fill="white"/>
<path d="M26.9996 25.2916C27.3586 25.2916 27.6496 25.0081 27.6496 24.6583V23.3916C27.6496 23.0419 27.3586 22.7583 26.9996 22.7583C26.6406 22.7583 26.3496 23.0419 26.3496 23.3916V24.6583C26.3496 25.0081 26.6406 25.2916 26.9996 25.2916Z" fill="white"/>
<path d="M27.6496 28.4583V27.1917C27.6496 26.8419 27.3586 26.5583 26.9996 26.5583C26.6406 26.5583 26.3496 26.8419 26.3496 27.1917V28.4583C26.3496 28.8081 26.6406 29.0917 26.9996 29.0917C27.3586 29.0917 27.6496 28.8081 27.6496 28.4583Z" fill="white"/>
<path d="M28.3004 26.5583H29.6004C29.9594 26.5583 30.2504 26.2747 30.2504 25.925C30.2504 25.5752 29.9594 25.2916 29.6004 25.2916H28.3004C27.9414 25.2916 27.6504 25.5752 27.6504 25.925C27.6504 26.2747 27.9414 26.5583 28.3004 26.5583Z" fill="white"/>
<path d="M24.4 25.2916C24.041 25.2916 23.75 25.5752 23.75 25.925C23.75 26.2747 24.041 26.5583 24.4 26.5583H25.7C26.059 26.5583 26.35 26.2747 26.35 25.925C26.35 25.5752 26.059 25.2916 25.7 25.2916H24.4Z" fill="white"/>
<path d="M23.6151 33.3939C23.3614 33.6412 23.3614 34.0421 23.6151 34.2895L24.5901 35.2395C24.8452 35.4795 25.2506 35.476 25.5013 35.2317C25.752 34.9874 25.7555 34.5924 25.5092 34.3439L24.5342 33.3939C24.2804 33.1467 23.8689 33.1467 23.6151 33.3939Z" fill="white"/>
<path d="M22.1248 32.575C22.3877 32.5749 22.6246 32.4206 22.7252 32.184C22.8258 31.9474 22.7702 31.675 22.5844 31.4939L21.6094 30.5439C21.3543 30.3039 20.9489 30.3073 20.6982 30.5516C20.4475 30.7959 20.4439 31.1909 20.6903 31.4394L21.6653 32.3894C21.7871 32.5082 21.9524 32.5749 22.1248 32.575Z" fill="white"/>
<path d="M22.5847 33.3939C22.3309 33.1467 21.9195 33.1467 21.6656 33.3939L20.6906 34.3439C20.5217 34.5029 20.4539 34.7384 20.5134 34.9598C20.5729 35.1813 20.7504 35.3542 20.9776 35.4122C21.2049 35.4701 21.4465 35.4041 21.6097 35.2395L22.5847 34.2895C22.8385 34.0421 22.8385 33.6412 22.5847 33.3939Z" fill="white"/>
<path d="M24.0747 32.575C24.2471 32.5749 24.4124 32.5082 24.5342 32.3894L25.5092 31.4394C25.7556 31.1909 25.752 30.7959 25.5013 30.5516C25.2506 30.3073 24.8452 30.3039 24.5901 30.5439L23.6151 31.4939C23.4293 31.675 23.3737 31.9474 23.4743 32.184C23.5749 32.4206 23.8118 32.5749 24.0747 32.575Z" fill="white"/>
</g>
<defs>
<linearGradient id="paint0_linear_104_1165" x1="33.5" y1="0" x2="33.5" y2="67" gradientUnits="userSpaceOnUse">
<stop stop-color="#719FDE"/>
<stop offset="1" stop-color="#5169DF"/>
</linearGradient>
<clipPath id="clip0_104_1165">
<rect width="39" height="38" fill="white" transform="translate(14 15)"/>
</clipPath>
</defs>
</svg>
