<svg width="55" height="55" viewBox="0 0 55 55" fill="none" xmlns="http://www.w3.org/2000/svg">
<path fill-rule="evenodd" clip-rule="evenodd" d="M38.2021 30.0896C41.3417 32.2208 43.5417 35.1084 43.5417 38.9584V45.8334H52.7083V38.9584C52.7083 33.9625 44.5271 31.0063 38.2021 30.0896Z" fill="#313131"/>
<path d="M20.625 27.5C25.6876 27.5 29.7917 23.3959 29.7917 18.3333C29.7917 13.2707 25.6876 9.16663 20.625 9.16663C15.5624 9.16663 11.4583 13.2707 11.4583 18.3333C11.4583 23.3959 15.5624 27.5 20.625 27.5Z" fill="#313131"/>
<path fill-rule="evenodd" clip-rule="evenodd" d="M34.375 27.5C39.4396 27.5 43.5417 23.3979 43.5417 18.3333C43.5417 13.2687 39.4396 9.16663 34.375 9.16663C33.2979 9.16663 32.2896 9.39579 31.3271 9.71663C33.2991 12.1555 34.3749 15.1969 34.3749 18.3333C34.3749 21.4697 33.2991 24.5111 31.3271 26.95C32.2896 27.2708 33.2979 27.5 34.375 27.5ZM20.625 29.7916C14.5062 29.7916 2.29166 32.8625 2.29166 38.9583V45.8333H38.9583V38.9583C38.9583 32.8625 26.7437 29.7916 20.625 29.7916Z" fill="#313131"/>
</svg>
