<svg width="47" height="47" viewBox="0 0 47 47" fill="none" xmlns="http://www.w3.org/2000/svg">
<path d="M41.125 15.6667V13.7083L35.25 17.625L29.375 13.7083V15.6667L35.25 19.5833L41.125 15.6667ZM43.0833 5.875H3.91667C1.7625 5.875 0 7.6375 0 9.79167V37.2083C0 39.3625 1.7625 41.125 3.91667 41.125H43.0833C45.2375 41.125 46.9804 39.3625 46.9804 37.2083L47 9.79167C47 7.6375 45.2375 5.875 43.0833 5.875ZM15.6667 11.75C18.9175 11.75 21.5417 14.3742 21.5417 17.625C21.5417 20.8758 18.9175 23.5 15.6667 23.5C12.4158 23.5 9.79167 20.8758 9.79167 17.625C9.79167 14.3742 12.4158 11.75 15.6667 11.75ZM27.4167 35.25H3.91667V33.2917C3.91667 29.375 11.75 27.2208 15.6667 27.2208C19.5833 27.2208 27.4167 29.375 27.4167 33.2917V35.25ZM43.0833 23.5H27.4167V11.75H43.0833V23.5Z" fill="#313131"/>
</svg>
