<svg width="38" height="37" viewBox="0 0 38 37" fill="none" xmlns="http://www.w3.org/2000/svg">
<path d="M0 22.6897C0.0020052 27.6114 2.64913 32.1769 6.98632 34.739C11.3235 37.3012 16.7248 37.4901 21.2414 35.2377C21.4425 35.1371 21.573 34.9401 21.5836 34.721C21.5942 34.5019 21.4834 34.294 21.2929 34.1755C21.1024 34.0571 20.8611 34.0461 20.66 34.1467C16.0636 36.4506 10.5052 35.9621 6.41168 32.8944C2.31818 29.8268 0.432932 24.7371 1.57904 19.8475C2.72516 14.958 6.69451 11.1566 11.754 10.103C11.9753 10.0572 12.1546 9.90044 12.2243 9.69185C12.294 9.48326 12.2435 9.25449 12.0919 9.09172C11.9403 8.92895 11.7106 8.85691 11.4893 8.90273C4.79803 10.3217 0.0217732 16.0532 0 22.6897Z" fill="white"/>
<path d="M14.5666 33.7349C16.9796 33.7403 19.3307 32.9955 21.2742 31.6099C21.5565 31.4096 21.6178 31.0255 21.411 30.752C21.2043 30.4785 20.8079 30.4192 20.5256 30.6195C18.973 31.7252 17.1235 32.3726 15.1999 32.4837V31.2804C15.1999 30.9415 14.9164 30.6667 14.5666 30.6667C14.2168 30.6667 13.9333 30.9415 13.9333 31.2804V32.4763C8.84492 32.1618 4.79016 28.2332 4.46558 23.3032H5.69995C6.04973 23.3032 6.33328 23.0285 6.33328 22.6896C6.33328 22.3507 6.04973 22.076 5.69995 22.076H4.46241C4.77968 17.4774 8.34061 13.7042 13.0396 12.9875C13.2634 12.9547 13.4521 12.8086 13.5346 12.6044C13.6171 12.4002 13.5809 12.1688 13.4396 11.9975C13.2983 11.8262 13.0734 11.7409 12.8496 11.7738C6.96634 12.6543 2.7728 17.7725 3.22246 23.5239C3.67211 29.2753 8.61355 33.7231 14.5666 33.7349Z" fill="white"/>
<path d="M14.5669 15.3257C14.2171 15.3257 13.9336 15.6004 13.9336 15.9393V22.6892C13.9336 23.0281 14.2171 23.3028 14.5669 23.3028H20.2669C20.6167 23.3028 20.9003 23.0281 20.9003 22.6892C20.9003 22.3503 20.6167 22.0756 20.2669 22.0756H15.2003V15.9393C15.2003 15.6004 14.9167 15.3257 14.5669 15.3257Z" fill="white"/>
<path d="M29.7702 17.7807C31.5182 17.7786 32.9347 16.4062 32.9368 14.7125V13.8265L35.999 11.9856C36.2294 11.8354 36.444 11.6638 36.6399 11.4732C37.8934 10.2559 38.2006 8.39733 37.4021 6.86166C36.6037 5.326 34.8793 4.45899 33.1237 4.71043C33.4335 3.05376 32.6388 1.38657 31.1363 0.540842C29.6823 -0.283369 27.8549 -0.15659 26.537 0.859928C26.2615 1.07004 26.214 1.45673 26.4309 1.72361C26.6478 1.99049 27.0469 2.0365 27.3223 1.82639C28.2339 1.12376 29.4976 1.03648 30.5029 1.60671C31.8075 2.34195 32.2972 3.93317 31.6214 5.2406C31.3289 5.40727 31.0588 5.60821 30.8171 5.83889C30.5772 6.07983 30.5809 6.46255 30.8254 6.69908C31.0699 6.93561 31.4649 6.93867 31.7132 6.70594C31.9029 6.52071 32.1187 6.36246 32.3542 6.23591L32.401 6.21443C33.6446 5.59124 35.1713 5.93557 36.003 7.02683C36.8347 8.11809 36.7251 9.63306 35.7444 10.6012C35.6123 10.7303 35.4679 10.847 35.3131 10.9498L32.1224 12.8717H19.1846L16.0034 10.9571C15.8419 10.8547 15.692 10.7361 15.5563 10.6031C14.5063 9.51491 14.5365 7.81603 15.6244 6.76347C16.7123 5.71091 18.4658 5.6841 19.5874 6.70288C19.8358 6.9356 20.2308 6.93255 20.4753 6.69601C20.7197 6.45948 20.7234 6.07676 20.4836 5.83582C20.2294 5.59439 19.9436 5.38624 19.6337 5.21667C19.0368 4.06263 19.3493 2.66167 20.3847 1.84937C21.4201 1.03708 22.8994 1.03237 23.9403 1.83805C24.1165 1.97572 24.355 2.01189 24.5662 1.93292C24.7773 1.85396 24.9289 1.67186 24.9639 1.45521C24.9989 1.23857 24.9119 1.02031 24.7358 0.882632C23.3981 -0.156609 21.5346 -0.280583 20.0628 0.571758C18.5911 1.4241 17.8213 3.07309 18.1327 4.70675C16.3825 4.47186 14.6731 5.34638 13.8864 6.87916C13.0996 8.41193 13.4113 10.2603 14.6607 11.4707C14.8624 11.6676 15.0851 11.843 15.3251 11.9942L18.3702 13.8265V14.7125C18.3722 16.4062 19.7888 17.7786 21.5368 17.7807H22.8035V34.0418C22.8035 35.5668 24.0795 36.8031 25.6535 36.8031C27.2275 36.8031 28.5035 35.5668 28.5035 34.0418V17.7807H29.7702ZM19.6368 14.7125V14.0989H31.6702V14.7125C31.6702 15.7292 30.8195 16.5534 29.7702 16.5534H21.5368C20.4875 16.5534 19.6368 15.7292 19.6368 14.7125ZM27.2368 32.5077H25.967C25.6172 32.5077 25.3337 32.7824 25.3337 33.1213C25.3337 33.4602 25.6172 33.7349 25.967 33.7349H27.2368V34.0418C27.2368 34.889 26.5279 35.5758 25.6535 35.5758C24.779 35.5758 24.0702 34.889 24.0702 34.0418V17.7807H27.2368V32.5077Z" fill="white"/>
<path d="M27.6556 10.893C27.6177 11.0517 27.6464 11.2185 27.7355 11.3566C27.8246 11.4947 27.9667 11.5929 28.1306 11.6294C28.1773 11.6396 28.2251 11.6448 28.2731 11.6447C28.5679 11.6446 28.8236 11.4475 28.8899 11.1692L29.6917 7.84024C29.7456 7.57752 29.7729 7.31036 29.7734 7.04253C29.763 4.86938 27.967 3.10018 25.7245 3.05396H25.6568C25.6042 3.05396 25.544 3.05396 25.4877 3.06132C23.2768 3.135 21.5275 4.89922 21.5401 7.04253C21.5411 7.31827 21.57 7.59326 21.6262 7.86356L22.0297 9.52832C22.0297 9.54244 22.0347 9.55594 22.0379 9.57005L22.4236 11.1692C22.4745 11.3828 22.6392 11.5539 22.8556 11.618C23.072 11.6821 23.3073 11.6295 23.4728 11.4799C23.6383 11.3304 23.7089 11.1067 23.658 10.893L23.278 9.3246C23.278 9.31049 23.2729 9.29699 23.2697 9.28287L22.8638 7.60583C22.8257 7.42031 22.8062 7.23167 22.8055 7.04253C22.8054 5.53152 24.0587 4.30102 25.6181 4.28121H25.703C27.2558 4.3128 28.4996 5.53777 28.5068 7.04253C28.5065 7.22394 28.4887 7.40493 28.4536 7.58313L27.6556 10.893Z" fill="white"/>
</svg>
