<svg width="133" height="51" viewBox="0 0 133 51" fill="none" xmlns="http://www.w3.org/2000/svg">
<path d="M0 13.2264C0 6.04675 5.8203 0.22644 13 0.22644H120C127.18 0.22644 133 6.04674 133 13.2264V38C133 45.1797 127.18 51 120 51H13C5.8203 51 0 45.1797 0 38V13.2264Z" fill="#F6892A"/>
<path d="M34.3223 20.258C35.8587 20.258 37.0208 20.6323 37.8086 21.381C38.5964 22.1232 38.9902 23.2267 38.9902 24.6916V31.967H35.9336L35.9141 24.4377C35.9141 23.8322 35.7839 23.383 35.5234 23.09C35.263 22.7905 34.8659 22.6408 34.332 22.6408H32.8184C32.7207 22.9989 32.6426 23.3928 32.584 23.8224C32.5319 24.2521 32.5059 24.659 32.5059 25.0432V28.3928C32.5059 29.1805 32.3659 29.8543 32.0859 30.4142C31.806 30.9741 31.3991 31.4038 30.8652 31.7033C30.3314 31.9963 29.6934 32.1428 28.9512 32.1428C28.4954 32.1428 28.0007 32.0972 27.4668 32.006V29.6428C27.7533 29.6558 27.9681 29.6623 28.1113 29.6623C29.0553 29.6623 29.5273 29.161 29.5273 28.1584V25.3166C29.5273 24.8869 29.5827 24.4214 29.6934 23.9201C29.8105 23.4123 29.9766 22.9859 30.1914 22.6408H28.3652V20.258H34.3223Z" fill="white"/>
<path d="M42.0664 22.6408H41.041V20.258H45.1328V31.967H42.0664V22.6408Z" fill="white"/>
<path d="M52.3008 24.2326C52.3008 23.7118 52.1543 23.3179 51.8613 23.051C51.5684 22.7775 51.1452 22.6408 50.5918 22.6408H47.0664V20.258H50.8164C51.7604 20.258 52.5742 20.424 53.2578 20.756C53.9414 21.0816 54.4622 21.5536 54.8203 22.1721C55.1849 22.7905 55.3672 23.5295 55.3672 24.3889V31.967H52.3008V24.2326Z" fill="white"/>
<path d="M67.252 29.6818V31.967H57.1836V29.5744H62.8281V24.3986C62.8281 23.8062 62.6719 23.3667 62.3594 23.0803C62.0534 22.7873 61.5879 22.6408 60.9629 22.6408H57.8086V20.258H61.1777C62.1673 20.258 63.0137 20.4273 63.7168 20.7658C64.4264 21.0978 64.9668 21.5861 65.3379 22.2307C65.709 22.8687 65.8945 23.6402 65.8945 24.5451V29.4767L67.252 29.6818Z" fill="white"/>
<path d="M69.1465 20.258H74.2441C75.7741 20.258 76.9297 20.6323 77.7109 21.381C78.4987 22.1232 78.8991 23.2267 78.9121 24.6916V31.967H75.8555L75.8359 24.4377C75.8359 23.2398 75.3086 22.6408 74.2539 22.6408H72.2031V31.967H69.1367L69.1465 20.258Z" fill="white"/>
<path d="M87.1738 20.258C88.7103 20.258 89.8724 20.6323 90.6602 21.381C91.4479 22.1232 91.8418 23.2267 91.8418 24.6916V31.967H88.7852L88.7656 24.4377C88.7656 23.8322 88.6354 23.383 88.375 23.09C88.1146 22.7905 87.7174 22.6408 87.1836 22.6408H85.6699C85.5723 22.9989 85.4941 23.3928 85.4355 23.8224C85.3835 24.2521 85.3574 24.659 85.3574 25.0432V28.3928C85.3574 29.1805 85.2174 29.8543 84.9375 30.4142C84.6576 30.9741 84.2506 31.4038 83.7168 31.7033C83.1829 31.9963 82.5449 32.1428 81.8027 32.1428C81.347 32.1428 80.8522 32.0972 80.3184 32.006V29.6428C80.6048 29.6558 80.8197 29.6623 80.9629 29.6623C81.9069 29.6623 82.3789 29.161 82.3789 28.1584V25.3166C82.3789 24.8869 82.4342 24.4214 82.5449 23.9201C82.6621 23.4123 82.8281 22.9859 83.043 22.6408H81.2168V20.258H87.1738Z" fill="white"/>
<path d="M101.266 24.3986C101.266 23.8062 101.113 23.3667 100.807 23.0803C100.501 22.7873 100.032 22.6408 99.4004 22.6408H94.5664V20.258H99.625C100.615 20.258 101.461 20.4273 102.164 20.7658C102.874 21.0978 103.411 21.5861 103.775 22.2307C104.146 22.8687 104.332 23.6402 104.332 24.5451V31.967H101.266V24.3986ZM94.5273 27.9533C94.5273 26.827 94.7617 25.9872 95.2305 25.4338H97.6719C97.5482 26.0197 97.4863 26.7489 97.4863 27.6213V31.967H94.5273V27.9533Z" fill="white"/>
</svg>
