<svg width="25" height="17" viewBox="0 0 25 17" fill="none" xmlns="http://www.w3.org/2000/svg">
<path d="M2.16667 16.25C1.8007 16.25 1.49414 16.126 1.247 15.878C0.999866 15.63 0.875866 15.3234 0.875004 14.9583C0.874143 14.5932 0.998143 14.2867 1.247 14.0387C1.49587 13.7907 1.80242 13.6667 2.16667 13.6667H22.8333C23.1993 13.6667 23.5063 13.7907 23.7543 14.0387C24.0023 14.2867 24.1259 14.5932 24.125 14.9583C24.1241 15.3234 24.0001 15.6304 23.753 15.8793C23.5059 16.1282 23.1993 16.2517 22.8333 16.25H2.16667ZM2.16667 9.79167C1.8007 9.79167 1.49414 9.66767 1.247 9.41967C0.999866 9.17167 0.875866 8.86511 0.875004 8.5C0.874143 8.13489 0.998143 7.82833 1.247 7.58033C1.49587 7.33233 1.80242 7.20833 2.16667 7.20833H22.8333C23.1993 7.20833 23.5063 7.33233 23.7543 7.58033C24.0023 7.82833 24.1259 8.13489 24.125 8.5C24.1241 8.86511 24.0001 9.1721 23.753 9.42096C23.5059 9.66982 23.1993 9.79339 22.8333 9.79167H2.16667ZM2.16667 3.33333C1.8007 3.33333 1.49414 3.20933 1.247 2.96133C0.999866 2.71333 0.875866 2.40678 0.875004 2.04167C0.874143 1.67656 0.998143 1.37 1.247 1.122C1.49587 0.874 1.80242 0.75 2.16667 0.75H22.8333C23.1993 0.75 23.5063 0.874 23.7543 1.122C24.0023 1.37 24.1259 1.67656 24.125 2.04167C24.1241 2.40678 24.0001 2.71376 23.753 2.96262C23.5059 3.21149 23.1993 3.33506 22.8333 3.33333H2.16667Z" fill="#313131"/>
</svg>
